# xmcd
#
# Track frame offsets:
#	150
#	15479
#	30142
#	43985
#	56930
#	70761
#	87830
#	100549
#	110276
#	125958
#
# Disc length: 1837 seconds
#
# Revision: 0
# Processed by: cddbd v1.5.2PL0 Copyright (c) Steve Scherf et al.
# Submitted via: EasyCDDAExtractor 16.0.1.1
#
DISCID=7c072b0a
DTITLE=Bobby Durham - Where I Grow Up
DYEAR=1987
DGENRE=Country
TTITLE0=Where I Grew Up
TTITLE1=Several Hearts
TTITLE2=I Drove Her There
TTITLE3=Cheap Hotels
TTITLE4=You Gotta Have A Licence
TTITLE5=If You Count Goodbye
TTITLE6=Dance Real Slow
TTITLE7=Playboy
TTITLE8=Let's Start A Rumor Today
TTITLE9=Comin' Back
EXTD=
EXTT0=
EXTT1=
EXTT2=
EXTT3=
EXTT4=
EXTT5=
EXTT6=
EXTT7=
EXTT8=
EXTT9=
PLAYORDER=
